<?xml version="1.0" standalone="no"?><svg xmlns="http://www.w3.org/2000/svg" viewBox="0 0 1440 320"><path fill="#0099ff" fill-opacity="1" d="M0,64L30,53.3C60,43,120,21,180,32C240,43,300,85,360,96C420,107,480,85,540,85.3C600,85,660,107,720,138.7C780,171,840,213,900,234.7C960,256,1020,256,1080,240C1140,224,1200,192,1260,149.3C1320,107,1380,53,1410,26.7L1440,0L1440,320L1410,320C1380,320,1320,320,1260,320C1200,320,1140,320,1080,320C1020,320,960,320,900,320C840,320,780,320,720,320C660,320,600,320,540,320C480,320,420,320,360,320C300,320,240,320,180,320C120,320,60,320,30,320L0,320Z"></path></svg>